#!OML:ASF H:\Not Pregnant\Project 1\Capture day 1\Session 1\non-pregnant.ASF
:FULLY-SPECIFIED
:DEGREES
262
root 5.98329 14.7276 29.721 21.0209 -62.4459 -7.59398
lowerback 8.3763 0.377654 3.36801
upperback -8.55005 0.969536 0.539851
thorax -14.0911 0.101001 -1.47683
lowerneck 21.0448 -12.0012 -29.0248
upperneck -20.9383 -19.9342 43.5871
head -0.574255 -13.0517 22.0934
rclavicle 2.81205e-014 4.87022e-015
rhumerus -18.1456 4.38297 -82.2618
rradius 95.3377
rwrist 34.224
rhand 5.41258 8.70364
rfingers 7.12502
rthumb 30.7634 -18.7427
lclavicle 2.81205e-014 4.87022e-015
lhumerus -25.3602 -7.02356 76.9153
lradius 96.2889
lwrist 7.3936
lhand 3.76926 -14.317
lfingers 7.12502
lthumb 29.1954 13.413
rfemur -42.4135 -0.484511 23.5162
rtibia 59.4722
rfoot -28.9733 -3.70859
rtoes -13.2697
lfemur -45.2768 3.75483 -17.1142
ltibia 59.3436
lfoot -26.3605 2.0273
ltoes -14.7298
263
root 5.98239 14.7284 29.718 21.046 -62.4361 -7.60934
lowerback 8.36095 0.377722 3.35958
upperback -8.55502 0.967809 0.541907
thorax -14.0875 0.101105 -1.46927
lowerneck 21.0558 -12.0088 -29.0178
upperneck -20.9376 -19.9496 43.6224
head -0.563609 -13.0661 22.1088
rclavicle 4.65281e-014 1.03368e-014
rhumerus -18.1489 4.38268 -82.2636
rradius 95.3499
rwrist 34.2231
rhand 5.41055 8.673
rfingers 7.12502
rthumb 30.7615 -18.7737
lclavicle 4.65281e-014 1.03368e-014
lhumerus -25.3582 -7.03507 76.9058
lradius 96.3077
lwrist 7.39234
lhand 3.80328 -14.302
lfingers 7.12502
lthumb 29.2279 13.4223
rfemur -42.4215 -0.48686 23.5428
rtibia 59.4597
rfoot -28.9644 -3.70776
rtoes -13.2518
lfemur -45.286 3.75304 -17.0898
ltibia 59.3315
lfoot -26.3545 2.03003
ltoes -14.7505
264
root 5.98144 14.7291 29.7146 21.0746 -62.4233 -7.62264
lowerback 8.34138 0.376079 3.34335
upperback -8.56223 0.962742 0.547256
thorax -14.0841 0.100579 -1.45297
lowerneck 21.0667 -12.0148 -29.0099
upperneck -20.9341 -19.9622 43.6509
head -0.554885 -13.0782 22.121
rclavicle -4.98823e-014 -2.64384e-014
rhumerus -18.1548 4.39213 -82.2626
rradius 95.3641
rwrist 34.214
rhand 5.4108 8.6419
rfingers 7.12502
rthumb 30.7617 -18.8047
lclavicle -4.98823e-014 -2.64384e-014
lhumerus -25.3637 -7.03943 76.9004
lradius 96.3295
lwrist 7.38423
lhand 3.82661 -14.2845
lfingers 7.12502
lthumb 29.2501 13.436
rfemur -42.4364 -0.485974 23.5705
rtibia 59.4501
rfoot -28.9551 -3.71058
rtoes -13.2205
lfemur -45.3046 3.75583 -17.0641
ltibia 59.3234
lfoot -26.3524 2.01716
ltoes -14.7609
265
root 5.98027 14.7296 29.7116 21.0957 -62.4126 -7.63431
lowerback 8.32362 0.374527 3.32912
upperback -8.56802 0.958213 0.552722
thorax -14.0802 0.100157 -1.43779
lowerneck 21.0813 -12.0178 -29.0066
upperneck -20.9284 -19.9731 43.6779
head -0.546671 -13.0891 22.1345
rclavicle 3.31512e-014 -2.25621e-014
rhumerus -18.1597 4.40184 -82.2658
rradius 95.3745
rwrist 34.2063
rhand 5.42002 8.61212
rfingers 7.12502
rthumb 30.7705 -18.8328
lclavicle 3.31512e-014 -2.25621e-014
lhumerus -25.3761 -7.04268 76.8994
lradius 96.354
lwrist 7.36995
lhand 3.83585 -14.264
lfingers 7.12502
lthumb 29.259 13.4549
rfemur -42.443 -0.483886 23.5932
rtibia 59.4405
rfoot -28.9479 -3.71003
rtoes -13.1864
lfemur -45.3154 3.75891 -17.0414
ltibia 59.3162
lfoot -26.3539 1.99784
ltoes -14.7459
266
root 5.97914 14.7301 29.7085 21.1104 -62.3992 -7.63883
lowerback 8.30775 0.371377 3.31078
upperback -8.57498 0.951048 0.55874
thorax -14.079 0.0988722 -1.41919
lowerneck 21.0974 -12.0209 -29.0067
upperneck -20.9197 -19.9863 43.7034
head -0.536818 -13.1008 22.147
rclavicle -1.87233e-014 -1.0635e-014
rhumerus -18.1658 4.41315 -82.2705
rradius 95.3836
rwrist 34.1982
rhand 5.43528 8.5894
rfingers 7.12502
rthumb 30.7851 -18.8528
lclavicle -1.87233e-014 -1.0635e-014
lhumerus -25.393 -7.04672 76.9017
lradius 96.3787
lwrist 7.34359
lhand 3.82172 -14.2345
lfingers 7.12502
lthumb 29.2455 13.4868
rfemur -42.4496 -0.482304 23.613
rtibia 59.431
rfoot -28.9406 -3.71258
rtoes -13.1607
lfemur -45.3273 3.76148 -17.0211
ltibia 59.3083
lfoot -26.3558 1.96918
ltoes -14.7117
267
root 5.97782 14.7307 29.7058 21.1159 -62.3881 -7.64258
lowerback 8.29594 0.368451 3.2969
upperback -8.57932 0.944883 0.56311
thorax -14.0772 0.0975784 -1.40517
lowerneck 21.1142 -12.025 -29.0061
upperneck -20.9088 -20.0013 43.7264
head -0.526423 -13.1132 22.1572
rclavicle 2.47423e-015 -1.75924e-014
rhumerus -18.1737 4.42304 -82.2779
rradius 95.3926
rwrist 34.1915
rhand 5.45351 8.58985
rfingers 7.12502
rthumb 30.8024 -18.8491
lclavicle 2.47423e-015 -1.75924e-014
lhumerus -25.4128 -7.05424 76.907
lradius 96.4032
lwrist 7.30221
lhand 3.79305 -14.1979
lfingers 7.12502
lthumb 29.2181 13.5282
rfemur -42.4442 -0.48077 23.6295
rtibia 59.4185
rfoot -28.9345 -3.71616
rtoes -13.1537
lfemur -45.3261 3.76208 -17.0033
ltibia 59.2958
lfoot -26.3564 1.94477
ltoes -14.6851
268
root 5.97656 14.7314 29.7031 21.1156 -62.3802 -7.63491
lowerback 8.28108 0.367153 3.27817
upperback -8.58576 0.939718 0.564605
thorax -14.0758 0.0970005 -1.39178
lowerneck 21.1339 -12.0276 -29.0109
upperneck -20.8945 -20.0173 43.7506
head -0.51423 -13.1261 22.169
rclavicle -4.71359e-014 -2.78299e-015
rhumerus -18.1809 4.42431 -82.2906
rradius 95.3962
rwrist 34.1948
rhand 5.47943 8.60384
rfingers 7.12502
rthumb 30.8272 -18.8304
lclavicle -4.71359e-014 -2.78299e-015
lhumerus -25.4348 -7.06773 76.9161
lradius 96.4267
lwrist 7.24962
lhand 3.74501 -14.1523
lfingers 7.12502
lthumb 29.1722 13.5817
rfemur -42.4433 -0.477733 23.6404
rtibia 59.4033
rfoot -28.9258 -3.71719
rtoes -13.1455
lfemur -45.3263 3.76726 -16.9935
ltibia 59.2768
lfoot -26.3531 1.92821
ltoes -14.6862
269
root 5.97531 14.7326 29.7003 21.1052 -62.374 -7.61427
lowerback 8.26309 0.366059 3.25595
upperback -8.59208 0.933734 0.562447
thorax -14.0723 0.096189 -1.38029
lowerneck 21.1521 -12.0313 -29.0128
upperneck -20.8777 -20.0343 43.773
head -0.501523 -13.1392 22.1784
rclavicle -1.00594e-014 -3.97569e-015
rhumerus -18.1892 4.42238 -82.3084
rradius 95.3972
rwrist 34.2036
rhand 5.50557 8.6318
rfingers 7.12502
rthumb 30.8521 -18.7978
lclavicle -1.00594e-014 -3.97569e-015
lhumerus -25.4561 -7.08389 76.9254
lradius 96.4472
lwrist 7.19095
lhand 3.69056 -14.1049
lfingers 7.12502
lthumb 29.1202 13.6381
rfemur -42.4418 -0.476173 23.6457
rtibia 59.3812
rfoot -28.9123 -3.71962
rtoes -13.141
lfemur -45.3225 3.77123 -16.9916
ltibia 59.2475
lfoot -26.3426 1.92299
ltoes -14.7251
270
root 5.97391 14.7342 29.6978 21.103 -62.3677 -7.60387
lowerback 8.24252 0.36474 3.23866
upperback -8.59788 0.928348 0.562792
thorax -14.0665 0.0953632 -1.36888
lowerneck 21.1715 -12.0337 -29.0225
upperneck -20.8585 -20.0527 43.7979
head -0.486166 -13.1532 22.1903
rclavicle 1.24765e-015 -2.17669e-014
rhumerus -18.2005 4.42617 -82.3275
rradius 95.3943
rwrist 34.2162
rhand 5.5305 8.65664
rfingers 7.12502
rthumb 30.8758 -18.7684
lclavicle 1.24765e-015 -2.17669e-014
lhumerus -25.4833 -7.09233 76.9412
lradius 96.4662
lwrist 7.13111
lhand 3.63909 -14.0557
lfingers 7.12502
lthumb 29.0711 13.6958
rfemur -42.433 -0.474099 23.6568
rtibia 59.3472
rfoot -28.8918 -3.72383
rtoes -13.147
lfemur -45.3111 3.77851 -16.9869
ltibia 59.2071
lfoot -26.326 1.93389
ltoes -14.8214
271
root 5.97231 14.7366 29.6955 21.0974 -62.3619 -7.59164
lowerback 8.21728 0.363805 3.22528
upperback -8.60221 0.923575 0.560788
thorax -14.056 0.0943835 -1.36234
lowerneck 21.195 -12.0346 -29.0338
upperneck -20.8413 -20.0704 43.8247
head -0.471772 -13.1672 22.2048
rclavicle -4.12861e-014 -4.96962e-015
rhumerus -18.2232 4.44166 -82.3463
rradius 95.3906
rwrist 34.2289
rhand 5.54438 8.66005
rfingers 7.12502
rthumb 30.8891 -18.7625
lclavicle -4.12861e-014 -4.96962e-015
lhumerus -25.5136 -7.09208 76.9625
lradius 96.4804
lwrist 7.07381
lhand 3.60192 -14.014
lfingers 7.12502
lthumb 29.0356 13.7436
rfemur -42.4142 -0.47396 23.6664
rtibia 59.2952
rfoot -28.8616 -3.72787
rtoes -13.1605
lfemur -45.2901 3.78495 -16.9852
ltibia 59.1525
lfoot -26.3032 1.9487
ltoes -14.9292
272
root 5.97047 14.7402 29.6936 21.113 -62.351 -7.60545
lowerback 8.18847 0.360851 3.22689
upperback -8.60549 0.918513 0.562396
thorax -14.0419 0.0920458 -1.36011
lowerneck 21.2202 -12.0327 -29.0464
upperneck -20.8238 -20.085 43.8517
head -0.458742 -13.1798 22.2215
rclavicle 2.71159e-014 -8.44835e-015
rhumerus -18.2541 4.46284 -82.3702
rradius 95.3797
rwrist 34.2452
rhand 5.55159 8.64813
rfingers 7.12502
rthumb 30.8959 -18.7731
lclavicle 2.71159e-014 -8.44835e-015
lhumerus -25.5517 -7.07268 76.9906
lradius 96.4886
lwrist 7.02851
lhand 3.58636 -13.9787
lfingers 7.12502
lthumb 29.0207 13.7815
rfemur -42.3784 -0.474358 23.6906
rtibia 59.2163
rfoot -28.8193 -3.73505
rtoes -13.1885
lfemur -45.2578 3.79051 -16.9701
ltibia 59.0814
lfoot -26.2744 1.96408
ltoes -15.0567
273
root 5.96831 14.7453 29.6921 21.156 -62.3374 -7.64896
lowerback 8.15099 0.35913 3.24862
upperback -8.6075 0.917682 0.564071
thorax -14.0204 0.0897962 -1.36983
lowerneck 21.2484 -12.0286 -29.0593
upperneck -20.8083 -20.0974 43.885
head -0.446375 -13.1925 22.2436
rclavicle 8.7143e-016 -3.37934e-015
rhumerus -18.2906 4.47284 -82.4074
rradius 95.3532
rwrist 34.2729
rhand 5.54824 8.62297
rfingers 7.12502
rthumb 30.8927 -18.7989
lclavicle 8.7143e-016 -3.37934e-015
lhumerus -25.5943 -7.04392 77.0262
lradius 96.4867
lwrist 6.99128
lhand 3.58351 -13.9486
lfingers 7.12502
lthumb 29.018 13.812
rfemur -42.3288 -0.474087 23.7297
rtibia 59.1138
rfoot -28.7675 -3.7463
rtoes -13.2507
lfemur -45.2188 3.79732 -16.9404
ltibia 59.0015
lfoot -26.2463 1.97352
ltoes -15.1618
274
root 5.9659 14.7525 29.6912 21.214 -62.3237 -7.7069
lowerback 8.10431 0.357565 3.28251
upperback -8.60864 0.918275 0.564974
thorax -13.992 0.087056 -1.38741
lowerneck 21.2762 -12.0234 -29.0728
upperneck -20.7917 -20.1092 43.9238
head -0.432573 -13.2057 22.2693
rclavicle -1.40042e-014 6.06293e-015
rhumerus -18.3337 4.47237 -82.459
rradius 95.3087
rwrist 34.3104
rhand 5.53823 8.58643
rfingers 7.12502
rthumb 30.8832 -18.8372
lclavicle -1.40042e-014 6.06293e-015
lhumerus -25.6445 -7.00271 77.0716
lradius 96.4698
lwrist 6.94859
lhand 3.57298 -13.9163
lfingers 7.12502
lthumb 29.0079 13.8461
rfemur -42.2575 -0.475926 23.7749
rtibia 58.9676
rfoot -28.6978 -3.75134
rtoes -13.3283
lfemur -45.1653 3.79761 -16.902
ltibia 58.8959
lfoot -26.2087 1.96938
ltoes -15.2068
275
root 5.96415 14.7569 29.6882 21.3154 -62.2724 -7.8274
lowerback 8.09269 0.34342 3.34357
upperback -8.61689 0.909145 0.581108
thorax -13.995 0.0772937 -1.40178
lowerneck 21.3156 -12.0094 -29.0758
upperneck -20.7721 -20.1054 43.9313
head -0.434785 -13.2077 22.2828
rclavicle -3.48316e-014 -1.93815e-014
rhumerus -18.4164 4.52521 -82.4757
rradius 95.3097
rwrist 34.3069
rhand 5.50934 8.52434
rfingers 7.12502
rthumb 30.8557 -18.9045
lclavicle -3.48316e-014 -1.93815e-014
lhumerus -25.7065 -6.94736 77.1174
lradius 96.4644
lwrist 6.92964
lhand 3.57469 -13.9006
lfingers 7.12502
lthumb 29.0096 13.8615
rfemur -42.17 -0.476949 23.8688
rtibia 58.7984
rfoot -28.6103 -3.77993
rtoes -13.3972
lfemur -45.1124 3.80785 -16.8199
ltibia 58.7681
lfoot -26.1572 1.94145
ltoes -15.3478
276
root 5.96003 14.7698 29.6912 21.4903 -62.2993 -7.9905
lowerback 7.97483 0.365896 3.44092
upperback -8.60483 0.946825 0.571352
thorax -13.9034 0.0862765 -1.47327
lowerneck 21.3243 -12.0117 -29.082
upperneck -20.7584 -20.1254 44.0225
head -0.404949 -13.2324 22.3317
rclavicle 3.75602e-014 -1.66979e-014
rhumerus -18.3724 4.34592 -82.6499
rradius 95.1388
rwrist 34.4766
rhand 5.54212 8.55836
rfingers 7.12502
rthumb 30.8869 -18.8646
lclavicle 3.75602e-014 -1.66979e-014
lhumerus -25.7361 -6.9271 77.159
lradius 96.4116
lwrist 6.86537
lhand 3.53446 -13.8584
lfingers 7.12502
lthumb 28.9711 13.9103
rfemur -42.065 -0.455543 23.9454
rtibia 58.5598
rfoot -28.502 -3.76827
rtoes -13.61
lfemur -45.016 3.83575 -16.7524
ltibia 58.5751
lfoot -26.0868 1.94017
ltoes -15.3196
